<svg width="17" height="16" viewBox="0 0 17 16" fill="none" xmlns="http://www.w3.org/2000/svg">
<path d="M7.50354 1.37925C7.82144 0.498681 9.06679 0.498681 9.3847 1.37925L10.7003 5.02333C10.8434 5.41964 11.2195 5.68376 11.6409 5.68376H15.6549C16.6489 5.68376 17.0341 6.97671 16.2021 7.52071L13.1423 9.52151C12.7544 9.77515 12.5916 10.2621 12.749 10.698L13.9593 14.0505C14.2853 14.9536 13.275 15.7525 12.4714 15.227L8.99139 12.9514C8.65893 12.734 8.22931 12.734 7.89684 12.9514L4.4168 15.227C3.61322 15.7525 2.60292 14.9536 2.92895 14.0505L4.13926 10.698C4.29664 10.2621 4.13385 9.77515 3.74595 9.52151L0.686101 7.52071C-0.145843 6.97671 0.239361 5.68376 1.23338 5.68376H5.24737C5.66872 5.68376 6.04487 5.41964 6.18795 5.02333L7.50354 1.37925Z" fill="#555555"/>
</svg>
