<svg width="49" height="49" viewBox="0 0 49 49" fill="none" xmlns="http://www.w3.org/2000/svg">
<path d="M24.5 0.773926C11.2452 0.773926 0.5 11.5191 0.5 24.7739C0.5 38.0288 11.2452 48.7739 24.5 48.7739C37.7548 48.7739 48.5 38.0288 48.5 24.7739C48.5 11.5191 37.7548 0.773926 24.5 0.773926ZM12.4033 10.9136L16.6748 12.2554C17.2403 12.4411 17.6169 12.9662 17.6826 13.5034L17.9228 15.8559L37.2646 18.015C38.0952 18.1759 38.6788 18.9258 38.5625 19.6967L37.3613 26.4642C37.2084 27.1721 36.6222 27.6573 35.9697 27.6654H18.7871L18.4502 29.5843H34.7686C35.6218 29.6144 36.2468 30.2641 36.2568 31.0228C36.2214 31.8883 35.5238 32.4548 34.7686 32.4642H16.7217C15.8114 32.3889 15.1432 31.6676 15.2832 30.7855L16.0508 26.5609L14.8496 14.7514L11.539 13.6968C11.155 13.5688 10.8668 13.328 10.6748 12.976C10.3115 12.2148 10.6508 11.3719 11.2988 11.0073C11.6687 10.815 12.0299 10.7911 12.4033 10.9136ZM18.9072 33.2934C20.1499 33.2934 21.1572 34.3008 21.1572 35.5434C21.1572 36.786 20.1499 37.7934 18.9072 37.7934C17.6647 37.7934 16.6572 36.786 16.6572 35.5434C16.6572 34.3008 17.6646 33.2934 18.9072 33.2934ZM32.1142 33.2934C33.3568 33.2934 34.3642 34.3008 34.3642 35.5434C34.3642 36.786 33.3568 37.7934 32.1142 37.7934C30.8716 37.7934 29.8642 36.786 29.8642 35.5434C29.8642 34.3008 30.8716 33.2934 32.1142 33.2934Z" fill="#28A745"/>
</svg>
